solid OpenSCAD_Model
  facet normal 1 -0 0
    outer loop
      vertex -21.75 25.875 1.75
      vertex -21.75 37.125 -0.5
      vertex -21.75 37.125 1.75
    endloop
  endfacet
  facet normal 1 0 0
    outer loop
      vertex -21.75 37.125 -0.5
      vertex -21.75 25.875 1.75
      vertex -21.75 25.875 -0.5
    endloop
  endfacet
  facet normal -1 0 0
    outer loop
      vertex 21.75 22.875 -0.5
      vertex 21.75 37.125 1.75
      vertex 21.75 37.125 -0.5
    endloop
  endfacet
  facet normal -1 -0 0
    outer loop
      vertex 21.75 37.125 1.75
      vertex 21.75 22.875 -0.5
      vertex 21.75 22.875 1.75
    endloop
  endfacet
  facet normal 0 -1 0
    outer loop
      vertex -21.75 37.125 -0.5
      vertex 21.75 37.125 1.75
      vertex -21.75 37.125 1.75
    endloop
  endfacet
  facet normal 0 -1 -0
    outer loop
      vertex 21.75 37.125 1.75
      vertex -21.75 37.125 -0.5
      vertex 21.75 37.125 -0.5
    endloop
  endfacet
  facet normal 0 0 1
    outer loop
      vertex 21.75 37.125 -0.5
      vertex 10 25.875 -0.5
      vertex 21.75 22.875 -0.5
    endloop
  endfacet
  facet normal 0 0 1
    outer loop
      vertex 21.75 37.125 -0.5
      vertex 5.625 25.875 -0.5
      vertex 10 25.875 -0.5
    endloop
  endfacet
  facet normal 0 0 1
    outer loop
      vertex 5.625 25.875 -0.5
      vertex -17.625 25.875 -0.5
      vertex 5.625 22.875 -0.5
    endloop
  endfacet
  facet normal -0 0 1
    outer loop
      vertex -21.75 37.125 -0.5
      vertex 5.625 25.875 -0.5
      vertex 21.75 37.125 -0.5
    endloop
  endfacet
  facet normal 0 0 1
    outer loop
      vertex 5.625 25.875 -0.5
      vertex -21.75 37.125 -0.5
      vertex -17.625 25.875 -0.5
    endloop
  endfacet
  facet normal 0 0 1
    outer loop
      vertex -17.625 25.875 -0.5
      vertex -21.75 37.125 -0.5
      vertex -21.75 25.875 -0.5
    endloop
  endfacet
  facet normal 0 0 1
    outer loop
      vertex 21.75 22.875 -0.5
      vertex 10 25.875 -0.5
      vertex 10 22.875 -0.5
    endloop
  endfacet
  facet normal 0 0 1
    outer loop
      vertex 5.625 22.875 -0.5
      vertex -17.625 25.875 -0.5
      vertex -17.625 22.875 -0.5
    endloop
  endfacet
  facet normal 0 1 -0
    outer loop
      vertex -17.625 25.875 -0.5
      vertex -21.75 25.875 1.75
      vertex -17.625 25.875 1.75
    endloop
  endfacet
  facet normal 0 1 0
    outer loop
      vertex -21.75 25.875 1.75
      vertex -17.625 25.875 -0.5
      vertex -21.75 25.875 -0.5
    endloop
  endfacet
  facet normal 0 1 -0
    outer loop
      vertex 10 25.875 -0.5
      vertex 5.625 25.875 1.75
      vertex 10 25.875 1.75
    endloop
  endfacet
  facet normal 0 1 0
    outer loop
      vertex 5.625 25.875 1.75
      vertex 10 25.875 -0.5
      vertex 5.625 25.875 -0.5
    endloop
  endfacet
  facet normal 1 -0 0
    outer loop
      vertex -17.625 22.875 1.75
      vertex -17.625 25.875 -0.5
      vertex -17.625 25.875 1.75
    endloop
  endfacet
  facet normal 1 0 0
    outer loop
      vertex -17.625 25.875 -0.5
      vertex -17.625 22.875 1.75
      vertex -17.625 22.875 -0.5
    endloop
  endfacet
  facet normal -1 0 0
    outer loop
      vertex 5.625 22.875 -0.5
      vertex 5.625 25.875 1.75
      vertex 5.625 25.875 -0.5
    endloop
  endfacet
  facet normal -1 -0 0
    outer loop
      vertex 5.625 25.875 1.75
      vertex 5.625 22.875 -0.5
      vertex 5.625 22.875 1.75
    endloop
  endfacet
  facet normal 0 1 -0
    outer loop
      vertex 5.625 22.875 -0.5
      vertex -17.625 22.875 1.75
      vertex 5.625 22.875 1.75
    endloop
  endfacet
  facet normal 0 1 0
    outer loop
      vertex -17.625 22.875 1.75
      vertex 5.625 22.875 -0.5
      vertex -17.625 22.875 -0.5
    endloop
  endfacet
  facet normal 1 -0 0
    outer loop
      vertex 10 22.875 1.75
      vertex 10 25.875 -0.5
      vertex 10 25.875 1.75
    endloop
  endfacet
  facet normal 1 0 0
    outer loop
      vertex 10 25.875 -0.5
      vertex 10 22.875 1.75
      vertex 10 22.875 -0.5
    endloop
  endfacet
  facet normal 0 1 -0
    outer loop
      vertex 21.75 22.875 -0.5
      vertex 10 22.875 1.75
      vertex 21.75 22.875 1.75
    endloop
  endfacet
  facet normal 0 1 0
    outer loop
      vertex 10 22.875 1.75
      vertex 21.75 22.875 -0.5
      vertex 10 22.875 -0.5
    endloop
  endfacet
  facet normal -1 0 0
    outer loop
      vertex -23.5 21.375 -1.75
      vertex -23.5 39.125 1.75
      vertex -23.5 39.125 -1.75
    endloop
  endfacet
  facet normal -1 -0 0
    outer loop
      vertex -23.5 39.125 1.75
      vertex -23.5 21.375 -1.75
      vertex -23.5 21.375 1.75
    endloop
  endfacet
  facet normal 0 0 1
    outer loop
      vertex -17.625 25.875 1.75
      vertex -21.75 25.875 1.75
      vertex -17.625 22.875 1.75
    endloop
  endfacet
  facet normal 0 0 1
    outer loop
      vertex 10 25.875 1.75
      vertex 5.625 25.875 1.75
      vertex 10 22.875 1.75
    endloop
  endfacet
  facet normal 0 0 1
    outer loop
      vertex 23.5 39.125 1.75
      vertex 21.75 37.125 1.75
      vertex 23.5 21.375 1.75
    endloop
  endfacet
  facet normal 0 0 1
    outer loop
      vertex 23.5 39.125 1.75
      vertex -21.75 37.125 1.75
      vertex 21.75 37.125 1.75
    endloop
  endfacet
  facet normal 0 0 1
    outer loop
      vertex -21.75 37.125 1.75
      vertex -23.5 39.125 1.75
      vertex -21.75 25.875 1.75
    endloop
  endfacet
  facet normal -0 0 1
    outer loop
      vertex -23.5 39.125 1.75
      vertex -21.75 37.125 1.75
      vertex 23.5 39.125 1.75
    endloop
  endfacet
  facet normal -0 0 1
    outer loop
      vertex 21.75 22.875 1.75
      vertex 23.5 21.375 1.75
      vertex 21.75 37.125 1.75
    endloop
  endfacet
  facet normal -0 0 1
    outer loop
      vertex 10 22.875 1.75
      vertex 23.5 21.375 1.75
      vertex 21.75 22.875 1.75
    endloop
  endfacet
  facet normal 0 0 1
    outer loop
      vertex 5.625 22.875 1.75
      vertex 10 22.875 1.75
      vertex 5.625 25.875 1.75
    endloop
  endfacet
  facet normal -0 0 1
    outer loop
      vertex 5.625 22.875 1.75
      vertex 23.5 21.375 1.75
      vertex 10 22.875 1.75
    endloop
  endfacet
  facet normal 0 0 1
    outer loop
      vertex -23.5 21.375 1.75
      vertex 5.625 22.875 1.75
      vertex -17.625 22.875 1.75
    endloop
  endfacet
  facet normal 0 0 1
    outer loop
      vertex 5.625 22.875 1.75
      vertex -23.5 21.375 1.75
      vertex 23.5 21.375 1.75
    endloop
  endfacet
  facet normal 0 0 1
    outer loop
      vertex -21.75 25.875 1.75
      vertex -23.5 21.375 1.75
      vertex -17.625 22.875 1.75
    endloop
  endfacet
  facet normal 0 0 1
    outer loop
      vertex -23.5 21.375 1.75
      vertex -21.75 25.875 1.75
      vertex -23.5 39.125 1.75
    endloop
  endfacet
  facet normal 1 -0 0
    outer loop
      vertex 23.5 21.375 1.75
      vertex 23.5 39.125 -1.75
      vertex 23.5 39.125 1.75
    endloop
  endfacet
  facet normal 1 0 0
    outer loop
      vertex 23.5 39.125 -1.75
      vertex 23.5 21.375 1.75
      vertex 23.5 21.375 -1.75
    endloop
  endfacet
  facet normal 0 0 -1
    outer loop
      vertex -23.5 21.375 -1.75
      vertex 23.5 39.125 -1.75
      vertex 23.5 21.375 -1.75
    endloop
  endfacet
  facet normal -0 0 -1
    outer loop
      vertex 23.5 39.125 -1.75
      vertex -23.5 21.375 -1.75
      vertex -23.5 39.125 -1.75
    endloop
  endfacet
  facet normal 0 -1 0
    outer loop
      vertex -23.5 21.375 -1.75
      vertex 23.5 21.375 1.75
      vertex -23.5 21.375 1.75
    endloop
  endfacet
  facet normal 0 -1 -0
    outer loop
      vertex 23.5 21.375 1.75
      vertex -23.5 21.375 -1.75
      vertex 23.5 21.375 -1.75
    endloop
  endfacet
  facet normal 0 1 -0
    outer loop
      vertex 23.5 39.125 -1.75
      vertex -23.5 39.125 1.75
      vertex 23.5 39.125 1.75
    endloop
  endfacet
  facet normal 0 1 0
    outer loop
      vertex -23.5 39.125 1.75
      vertex 23.5 39.125 -1.75
      vertex -23.5 39.125 -1.75
    endloop
  endfacet
endsolid OpenSCAD_Model
